<svg width="20" height="20" viewBox="0 0 20 20" fill="none" xmlns="http://www.w3.org/2000/svg">
<path d="M5.96001 2.50996C6.65334 1.96996 7.56001 1.67163 8.46084 1.67163C9.00001 1.67163 9.43584 1.85663 9.76668 2.1508C9.85584 2.22996 9.93501 2.3158 10.0058 2.40413C10.0767 2.3158 10.1558 2.22996 10.245 2.1508C10.5758 1.85663 11.0117 1.67163 11.5508 1.67163C12.4517 1.67163 13.3592 1.96996 14.0508 2.50996C14.5908 2.92913 15.0133 3.5083 15.1792 4.20746C15.5292 4.2658 15.84 4.44413 16.0917 4.67996C16.4917 5.0558 16.7775 5.59913 16.9567 6.1583C17.1392 6.7258 17.23 7.3633 17.2025 7.9758C17.1883 8.28913 17.1425 8.60913 17.055 8.91496L17.1092 8.93996C17.4175 9.08496 17.6675 9.31246 17.855 9.61496C18.2092 10.1858 18.3342 11.0075 18.3342 12.055C18.3342 13.2591 17.8733 14.0766 17.2817 14.5841C16.9735 14.8484 16.6128 15.0444 16.2233 15.1591C16.082 15.8103 15.7917 16.4199 15.375 16.94C14.7725 17.6933 13.8358 18.33 12.5775 18.33C11.5692 18.33 10.775 17.7716 10.265 17.2383C10.1746 17.143 10.0884 17.0437 10.0067 16.9408C9.92469 17.0434 9.83822 17.1424 9.74751 17.2375C9.23751 17.7725 8.44334 18.33 7.43501 18.33C6.17584 18.33 5.23918 17.6933 4.63751 16.94C4.22025 16.4201 3.92929 15.8105 3.78751 15.1591C3.39835 15.0443 3.03793 14.8484 2.73001 14.5841C2.13834 14.0758 1.67834 13.2591 1.67834 12.055C1.67834 11.0075 1.80334 10.1858 2.15668 9.61496C2.34414 9.30418 2.62376 9.05951 2.95668 8.91496C2.87106 8.60873 2.82156 8.29353 2.80918 7.9758C2.78168 7.3633 2.87251 6.7258 3.05501 6.1583C3.23418 5.59996 3.51918 5.0558 3.92001 4.67996C4.1707 4.43561 4.48828 4.27117 4.83251 4.20746C4.99918 3.50746 5.42084 2.92913 5.96001 2.50996ZM6.72834 3.4958C6.27334 3.84996 6.00668 4.32163 6.00668 4.86496C6.0066 4.96394 5.98302 5.06149 5.93787 5.14957C5.89272 5.23766 5.8273 5.31376 5.74699 5.37161C5.66668 5.42946 5.57378 5.46742 5.47593 5.48234C5.37808 5.49727 5.27809 5.48874 5.18418 5.45746C5.07001 5.41913 4.94918 5.4283 4.77584 5.59163C4.58251 5.77246 4.38668 6.09996 4.24501 6.53996C4.1033 6.98567 4.04014 7.45262 4.05834 7.91996C4.07918 8.3833 4.18918 8.7683 4.36251 9.0283C4.39119 9.07137 4.41442 9.11784 4.43168 9.16663H5.33334C5.93332 9.1665 6.5111 9.39346 6.9506 9.80188C7.39009 10.2103 7.65872 10.7699 7.70251 11.3683C8.0615 11.5115 8.35954 11.7751 8.54562 12.1139C8.73171 12.4526 8.79427 12.8455 8.7226 13.2253C8.65093 13.6051 8.44948 13.9482 8.15274 14.1959C7.85599 14.4435 7.4824 14.5803 7.0959 14.5829C6.7094 14.5855 6.33402 14.4536 6.03402 14.2099C5.73401 13.9662 5.52803 13.6259 5.45132 13.247C5.37462 12.8682 5.43196 12.4745 5.61353 12.1333C5.79511 11.7921 6.08962 11.5246 6.44668 11.3766C6.4071 11.1097 6.27288 10.8659 6.0685 10.6896C5.86412 10.5134 5.60321 10.4165 5.33334 10.4166H3.14584C3.02084 10.7066 2.92834 11.2075 2.92834 12.055C2.92834 12.9058 3.23751 13.3725 3.54418 13.6358C3.88001 13.9233 4.24918 13.9983 4.35584 13.9983C4.52161 13.9983 4.68058 14.0641 4.79779 14.1814C4.915 14.2986 4.98084 14.4575 4.98084 14.6233C4.98084 14.9733 5.17418 15.6091 5.61418 16.1591C6.03751 16.69 6.64084 17.08 7.43501 17.08C7.96584 17.08 8.45418 16.7816 8.84335 16.375C9.03168 16.1766 9.17834 15.9708 9.27501 15.8041C9.31159 15.7418 9.34362 15.6769 9.37084 15.61L9.37584 15.5983V7.7083H8.62918C8.48414 8.06685 8.2189 8.3638 7.87893 8.54825C7.53897 8.73269 7.14543 8.79316 6.76577 8.71927C6.38612 8.64539 6.04397 8.44177 5.79798 8.14329C5.55199 7.84482 5.41747 7.47008 5.41747 7.0833C5.41747 6.69652 5.55199 6.32178 5.79798 6.0233C6.04397 5.72483 6.38612 5.5212 6.76577 5.44732C7.14543 5.37344 7.53897 5.4339 7.87893 5.61835C8.2189 5.8028 8.48414 6.09974 8.62918 6.4583H9.37584V4.3433L9.37334 4.2958C9.35909 4.03914 9.30859 3.7858 9.22334 3.5433C9.14834 3.3433 9.05084 3.18746 8.93584 3.08496C8.83334 2.9933 8.69168 2.92163 8.46084 2.92163C7.82251 2.92163 7.19001 3.13663 6.72751 3.49663L6.72834 3.4958ZM10.6367 14.1666V15.5983L10.6408 15.61C10.6575 15.6541 10.6892 15.72 10.7375 15.8041C10.8333 15.9708 10.98 16.1766 11.1692 16.375C11.5575 16.7816 12.0467 17.08 12.5775 17.08C13.3708 17.08 13.9742 16.69 14.3983 16.1591C14.8375 15.6091 15.0317 14.9725 15.0317 14.6233C15.0317 14.4575 15.0975 14.2986 15.2147 14.1814C15.3319 14.0641 15.4909 13.9983 15.6567 13.9983C15.7633 13.9983 16.1317 13.9233 16.4683 13.6358C16.7742 13.3725 17.0833 12.9058 17.0833 12.055C17.0833 11.0483 16.9517 10.53 16.7925 10.2741C16.7427 10.1857 16.6671 10.1144 16.5758 10.07C16.4917 10.03 16.365 9.99996 16.1692 9.99996C16.0561 9.99996 15.9451 9.96925 15.848 9.91111C15.751 9.85298 15.6715 9.7696 15.6182 9.66987C15.5648 9.57013 15.5395 9.45778 15.545 9.34479C15.5504 9.23181 15.5864 9.12242 15.6492 9.0283C15.8225 8.76746 15.9325 8.3833 15.9542 7.91996C15.9721 7.45257 15.9087 6.98563 15.7667 6.53996C15.625 6.09996 15.4292 5.7733 15.2367 5.59163C15.0625 5.4283 14.9417 5.41913 14.8283 5.45746C14.7344 5.4889 14.6343 5.49756 14.5363 5.48271C14.4384 5.46786 14.3454 5.42994 14.2649 5.37206C14.1845 5.31419 14.119 5.23803 14.0738 5.14986C14.0286 5.06169 14.005 4.96404 14.005 4.86496C14.005 4.32163 13.7383 3.84996 13.2833 3.4958C12.8225 3.13663 12.1892 2.9208 11.55 2.9208C11.32 2.9208 11.1792 2.9933 11.0758 3.08413C10.9454 3.21208 10.8471 3.36916 10.7892 3.54246C10.6957 3.7995 10.6442 4.0699 10.6367 4.3433V12.9166H11.1667C11.465 12.9166 11.7512 12.7981 11.9622 12.5871C12.1732 12.3761 12.2917 12.09 12.2917 11.7916V10.2958C11.9331 10.1508 11.6362 9.88552 11.4517 9.54555C11.2673 9.20559 11.2068 8.81205 11.2807 8.43239C11.3546 8.05274 11.5582 7.71059 11.8567 7.4646C12.1552 7.21861 12.5299 7.08409 12.9167 7.08409C13.3035 7.08409 13.6782 7.21861 13.9767 7.4646C14.2751 7.71059 14.4788 8.05274 14.5527 8.43239C14.6265 8.81205 14.5661 9.20559 14.3816 9.54555C14.1972 9.88552 13.9002 10.1508 13.5417 10.2958V11.7916C13.5417 12.4215 13.2915 13.0256 12.8461 13.471C12.4007 13.9164 11.7966 14.1666 11.1667 14.1666H10.6367ZM7.08334 6.66663C6.97284 6.66663 6.86686 6.71053 6.78872 6.78867C6.71058 6.86681 6.66668 6.97279 6.66668 7.0833C6.66668 7.1938 6.71058 7.29979 6.78872 7.37793C6.86686 7.45607 6.97284 7.49996 7.08334 7.49996C7.19385 7.49996 7.29983 7.45607 7.37797 7.37793C7.45611 7.29979 7.50001 7.1938 7.50001 7.0833C7.50001 6.97279 7.45611 6.86681 7.37797 6.78867C7.29983 6.71053 7.19385 6.66663 7.08334 6.66663ZM6.66668 12.9166C6.66668 13.0271 6.71058 13.1331 6.78872 13.2113C6.86686 13.2894 6.97284 13.3333 7.08334 13.3333C7.19385 13.3333 7.29983 13.2894 7.37797 13.2113C7.45611 13.1331 7.50001 13.0271 7.50001 12.9166C7.50001 12.8061 7.45611 12.7001 7.37797 12.622C7.29983 12.5439 7.19385 12.5 7.08334 12.5C6.97284 12.5 6.86686 12.5439 6.78872 12.622C6.71058 12.7001 6.66668 12.8061 6.66668 12.9166ZM12.5 8.74996C12.5 8.86047 12.5439 8.96645 12.622 9.04459C12.7002 9.12273 12.8062 9.16663 12.9167 9.16663C13.0272 9.16663 13.1332 9.12273 13.2113 9.04459C13.2894 8.96645 13.3333 8.86047 13.3333 8.74996C13.3333 8.63946 13.2894 8.53348 13.2113 8.45534C13.1332 8.3772 13.0272 8.3333 12.9167 8.3333C12.8062 8.3333 12.7002 8.3772 12.622 8.45534C12.5439 8.53348 12.5 8.63946 12.5 8.74996Z" fill="white"/>
</svg>
