<svg width="17" height="16" viewBox="0 0 17 16" fill="none" xmlns="http://www.w3.org/2000/svg">
<path d="M14.6732 6.76932C14.7552 7.20865 14.7999 7.66798 14.7999 8.14732C14.7999 11.8967 12.2906 14.5627 8.50056 14.5627C7.63867 14.5629 6.78517 14.3933 5.98883 14.0636C5.19249 13.7339 4.46892 13.2505 3.85947 12.6411C3.25002 12.0316 2.76663 11.3081 2.43692 10.5117C2.1072 9.71538 1.93763 8.86188 1.9379 7.99998C1.93763 7.13809 2.1072 6.28459 2.43692 5.48825C2.76663 4.69191 3.25002 3.96834 3.85947 3.35889C4.46892 2.74944 5.19249 2.26605 5.98883 1.93634C6.78517 1.60662 7.63867 1.43705 8.50056 1.43732C10.2726 1.43732 11.7532 2.08932 12.8892 3.14798L11.0392 4.99798V4.99332C10.3506 4.33732 9.47656 4.00065 8.50056 4.00065C6.33523 4.00065 4.57523 5.82998 4.57523 7.99599C4.57523 10.1613 6.33523 11.9947 8.50056 11.9947C10.4652 11.9947 11.8026 10.8713 12.0772 9.32865H8.50056V6.76932H14.6739H14.6732Z" fill="white"/>
</svg>
