<svg width="217" height="125" viewBox="0 0 217 125" fill="none" xmlns="http://www.w3.org/2000/svg">
<path d="M2 28.1457V60.4305M9 13.245V81.1258M19 28.1457V66.2252M33 0V89.404M44 19.8675V104.305M55 0V46.3576M73 19.8675V66.2252" stroke="white" stroke-width="3"/>
<path d="M73 48.8411V81.1258M80 33.9404V101.821M90 48.8411V86.9205M104 20.6954V110.099M115 40.5629V125M126 20.6954V67.053M144 40.5629V86.9205" stroke="white" stroke-width="3"/>
<path d="M144 37.2517V69.5364M151 22.351V90.2318M161 37.2517V75.3311M175 9.10596V98.5099M186 28.9735V113.411M197 9.10596V55.4636M215 28.9735V75.3311" stroke="white" stroke-width="3"/>
</svg>
