<svg width="149" height="108" viewBox="0 0 149 108" fill="none" xmlns="http://www.w3.org/2000/svg">
<g clip-path="url(#clip0_134_130)">
<path d="M141.489 90.627C141.489 53.673 111.432 23.7165 74.3534 23.7165C37.2749 23.7165 7.21758 53.673 7.21758 90.627C7.21758 91.7131 6.78469 92.7546 6.01414 93.5226C5.24359 94.2906 4.19851 94.722 3.10879 94.722C2.01907 94.722 0.973983 94.2906 0.203436 93.5226C-0.567111 92.7546 -1 91.7131 -1 90.627L-1 90.105C-1 48.6285 32.7372 15 74.3579 15C115.979 15 149.716 48.624 149.716 90.105V90.654V90.627C149.716 91.7131 149.283 92.7546 148.512 93.5226C147.742 94.2906 146.697 94.722 145.607 94.722C144.517 94.722 143.472 94.2906 142.702 93.5226C141.931 92.7546 141.498 91.7131 141.498 90.627H141.489ZM125.04 90.627C125.04 62.727 102.347 40.11 74.3534 40.11C46.3594 40.11 23.6663 62.727 23.6663 90.627C23.6663 91.7131 23.2334 92.7546 22.4628 93.5226C21.6923 94.2906 20.6472 94.722 19.5575 94.722C18.4678 94.722 17.4227 94.2906 16.6521 93.5226C15.8816 92.7546 15.4487 91.7131 15.4487 90.627C15.4487 58.2 41.8217 31.9155 74.3579 31.9155C106.894 31.9155 133.267 58.2 133.267 90.627C133.267 91.7131 132.834 92.7546 132.064 93.5226C131.293 94.2906 130.248 94.722 129.158 94.722C128.069 94.722 127.023 94.2906 126.253 93.5226C125.482 92.7546 125.049 91.7131 125.049 90.627H125.04ZM108.596 90.627C108.596 81.5757 104.989 72.8951 98.5668 66.4949C92.145 60.0946 83.4351 56.499 74.3534 56.499C65.2716 56.499 56.5618 60.0946 50.14 66.4949C43.7182 72.8951 40.1105 81.5757 40.1105 90.627C40.1105 91.7131 39.6776 92.7546 38.907 93.5226C38.1365 94.2906 37.0914 94.722 36.0017 94.722C34.9119 94.722 33.8669 94.2906 33.0963 93.5226C32.3258 92.7546 31.8929 91.7131 31.8929 90.627C31.8929 79.4024 36.3669 68.6375 44.3306 60.7005C52.2943 52.7635 63.0955 48.3045 74.3579 48.3045C85.6203 48.3045 96.4214 52.7635 104.385 60.7005C112.349 68.6375 116.823 79.4024 116.823 90.627C116.823 91.7131 116.39 92.7546 115.619 93.5226C114.849 94.2906 113.804 94.722 112.714 94.722C111.624 94.722 110.579 94.2906 109.809 93.5226C109.038 92.7546 108.605 91.7131 108.605 90.627H108.596ZM92.1476 90.627V90.375C92.1476 85.6703 90.2724 81.1583 86.9344 77.8316C83.5965 74.5049 79.0694 72.636 74.3488 72.636C69.6283 72.636 65.1012 74.5049 61.7632 77.8316C58.4253 81.1583 56.5501 85.6703 56.5501 90.375V90.6405V90.627C56.5501 91.7131 56.1172 92.7546 55.3467 93.5226C54.5761 94.2906 53.5311 94.722 52.4413 94.722C51.3516 94.722 50.3065 94.2906 49.536 93.5226C48.7654 92.7546 48.3325 91.7131 48.3325 90.627C48.3325 87.2214 49.0056 83.8491 50.3133 80.7027C51.6209 77.5563 53.5376 74.6974 55.9539 72.2892C58.3701 69.8811 61.2386 67.9709 64.3956 66.6676C67.5526 65.3643 70.9363 64.6935 74.3534 64.6935C77.7705 64.6935 81.1541 65.3643 84.3111 66.6676C87.4681 67.9709 90.3366 69.8811 92.7529 72.2892C95.1691 74.6974 97.0858 77.5563 98.3935 80.7027C99.7011 83.8491 100.374 87.2214 100.374 90.627C100.374 91.7131 99.9413 92.7546 99.1707 93.5226C98.4002 94.2906 97.3551 94.722 96.2654 94.722C95.1757 94.722 94.1306 94.2906 93.36 93.5226C92.5895 92.7546 92.1566 91.7131 92.1566 90.627H92.1476Z" fill="white"/>
</g>
<defs>
<clipPath id="clip0_134_130">
<rect width="149" height="108" fill="white"/>
</clipPath>
</defs>
</svg>
