<svg width="20" height="20" viewBox="0 0 20 20" fill="none" xmlns="http://www.w3.org/2000/svg">
<path d="M18.7278 9.60548L10.3944 1.27215C10.2904 1.16867 10.1496 1.1106 10.0028 1.1106C9.85601 1.1106 9.71521 1.16867 9.61112 1.27215L1.27778 9.60548C1.18677 9.71176 1.13921 9.84847 1.14461 9.98829C1.15001 10.1281 1.20797 10.2607 1.30691 10.3597C1.40586 10.4586 1.53849 10.5166 1.67831 10.522C1.81813 10.5274 1.95484 10.4798 2.06112 10.3888L10 2.44992L17.9389 10.3944C18.0452 10.4854 18.1819 10.5329 18.3217 10.5275C18.4615 10.5221 18.5942 10.4642 18.6931 10.3652C18.792 10.2663 18.85 10.1337 18.8554 9.99384C18.8608 9.85402 18.8132 9.71731 18.7222 9.61104L18.7278 9.60548Z" fill="white"/>
<path d="M15.5556 17.7778H12.7778V12.2223H7.22223V17.7778H4.44445V10L3.33334 11.1111V17.7778C3.33334 18.0725 3.45041 18.3551 3.65878 18.5635C3.86715 18.7719 4.14977 18.8889 4.44445 18.8889H8.33334V13.3334H11.6667V18.8889H15.5556C15.8503 18.8889 16.1329 18.7719 16.3412 18.5635C16.5496 18.3551 16.6667 18.0725 16.6667 17.7778V10.9778L15.5556 9.8667V17.7778Z" fill="white"/>
</svg>
