<svg width="20" height="20" viewBox="0 0 20 20" fill="none" xmlns="http://www.w3.org/2000/svg">
<path d="M2.29166 14.5626L5.26666 12.0959L7.25416 13.7667L11.0458 10.1876L13.4333 12.0667L17.7083 8.35425" stroke="white" stroke-linecap="round" stroke-linejoin="round"/>
<path d="M16.875 17.7084H3.12499C2.90398 17.7084 2.69201 17.6206 2.53573 17.4643C2.37945 17.3081 2.29166 17.0961 2.29166 16.8751V3.12508C2.29166 2.90407 2.37945 2.69211 2.53573 2.53583C2.69201 2.37955 2.90398 2.29175 3.12499 2.29175H16.875C17.096 2.29175 17.308 2.37955 17.4642 2.53583C17.6205 2.69211 17.7083 2.90407 17.7083 3.12508V16.8751C17.7083 17.0961 17.6205 17.3081 17.4642 17.4643C17.308 17.6206 17.096 17.7084 16.875 17.7084Z" stroke="white" stroke-linecap="round" stroke-linejoin="round"/>
</svg>
