<svg width="173" height="175" viewBox="0 0 173 175" fill="none" xmlns="http://www.w3.org/2000/svg">
<path d="M81.8092 0H91.1718C92.2913 0.285451 93.4256 0.50853 94.5695 0.668221C129.573 3.79671 159.722 28.5588 169.644 62.4179C171.554 68.9178 173.087 75.5089 172.996 82.9201H133.915V90.9691H172.792C172.853 115.944 158.076 146.568 129.755 162.173C97.8691 179.736 66.1647 178.271 36.3026 157.472C13.6663 141.724 2.01597 119.118 0 90.7793H39.3832V82.8138H0.302018C0.302018 81.3634 0.241615 80.4598 0.302018 79.5714C3.14099 43.4799 30.0508 11.6179 65.0095 3.15127C70.544 1.80723 76.2068 1.0327 81.8092 0ZM165.113 75.0609C161.58 42.4396 130.774 6.29494 84.9805 7.23652C38.7943 8.19329 10.8274 45.8263 8.23 74.947H74.7496V22.9853C51.5017 26.091 31.7119 46.3198 27.7102 60.1626H59.8072V43.8368L48.7307 52.8881H40.3874C47.7265 43.5179 56.115 36.942 67.0028 33.0162V67.2701H17.4567C24.3729 39.0074 52.9438 15.483 82.7078 15.2628V40.0021L89.6542 39.6984V15.1868C116.315 12.9847 152.663 41.8549 155.607 67.346H105.238V32.9554C115.341 35.279 130.344 46.6236 131.99 53.0552H124.273C120.841 49.2566 116.829 46.032 112.389 43.5027V60.0791H145.611C139.842 43.328 118.656 24.9596 97.552 22.9473V75.0609H165.113ZM165.257 98.8815H97.6124V151.352C119.093 148.99 140.967 129.946 145.535 113.765H112.313V131.366L125.149 120.918H133.19C126.254 130.585 116.486 137.831 105.253 141.64V106.475H156.219C150.881 124.532 140.627 138.299 125.262 148.163C114.575 155.168 102.145 159.012 89.3899 159.257V134.502H82.5416V158.915C52.5663 158.915 22.742 133.469 17.6605 106.52H67.0028V141.238C55.964 137.061 47.2432 130.69 40.3044 120.887H48.255L59.7997 130.409V113.84H27.4157C32.9578 131.169 56.3491 149.605 74.659 151.192V98.8966H8.1696C10.7821 128.245 38.2582 164.777 82.7531 166.911C127.875 169.067 160.878 134.51 165.257 98.8815ZM89.3975 82.9353V47.1855H82.5341V83.1099H46.8129V91.0071H82.7833V126.977H89.7221V90.7185H126.629V82.9732L89.3975 82.9353Z" fill="white"/>
</svg>
