<svg width="20" height="20" viewBox="0 0 20 20" fill="none" xmlns="http://www.w3.org/2000/svg">
<path d="M17.5 15.8334H7.5M2.5 4.16675H5.83333H2.5ZM17.5 4.16675H9.16667H17.5ZM2.5 10.0001H12.5H2.5ZM17.5 10.0001H15.8333H17.5ZM2.5 15.8334H4.16667H2.5Z" stroke="white" stroke-width="2" stroke-linecap="round"/>
<path d="M7.49998 5.83333C8.42045 5.83333 9.16665 5.08714 9.16665 4.16667C9.16665 3.24619 8.42045 2.5 7.49998 2.5C6.57951 2.5 5.83331 3.24619 5.83331 4.16667C5.83331 5.08714 6.57951 5.83333 7.49998 5.83333Z" stroke="white" stroke-width="2" stroke-linecap="round"/>
<path d="M14.1667 11.6666C15.0871 11.6666 15.8333 10.9204 15.8333 9.99992C15.8333 9.07944 15.0871 8.33325 14.1667 8.33325C13.2462 8.33325 12.5 9.07944 12.5 9.99992C12.5 10.9204 13.2462 11.6666 14.1667 11.6666Z" stroke="white" stroke-width="2" stroke-linecap="round"/>
<path d="M5.83335 17.5001C6.75383 17.5001 7.50002 16.7539 7.50002 15.8334C7.50002 14.9129 6.75383 14.1667 5.83335 14.1667C4.91288 14.1667 4.16669 14.9129 4.16669 15.8334C4.16669 16.7539 4.91288 17.5001 5.83335 17.5001Z" stroke="white" stroke-width="2" stroke-linecap="round"/>
</svg>
