<svg width="17" height="16" viewBox="0 0 17 16" fill="none" xmlns="http://www.w3.org/2000/svg">
<g clip-path="url(#clip0_9_10341)">
<path d="M16.5005 3.29134C15.9438 3.53801 15.3458 3.70468 14.7171 3.78001C15.3658 3.39187 15.8511 2.78099 16.0825 2.06134C15.473 2.42334 14.806 2.67814 14.1105 2.81468C13.6427 2.31525 13.0232 1.98423 12.348 1.87299C11.6729 1.76176 10.9799 1.87654 10.3766 2.19951C9.77338 2.52249 9.29365 3.03559 9.0119 3.65915C8.73015 4.28271 8.66215 4.98184 8.81846 5.64801C7.58359 5.58601 6.37555 5.26504 5.27274 4.70595C4.16994 4.14685 3.19702 3.36212 2.41713 2.40268C2.15046 2.86268 1.99713 3.39601 1.99713 3.96401C1.99683 4.47534 2.12275 4.97884 2.36371 5.42983C2.60468 5.88083 2.95324 6.26537 3.37846 6.54934C2.88531 6.53365 2.40304 6.4004 1.9718 6.16068V6.20068C1.97175 6.91784 2.21982 7.61293 2.67392 8.16801C3.12802 8.72309 3.76018 9.10396 4.46313 9.24601C4.00565 9.36982 3.52602 9.38806 3.06046 9.29934C3.25879 9.91642 3.64513 10.456 4.16537 10.8426C4.68562 11.2292 5.31374 11.4435 5.9618 11.4553C4.86168 12.319 3.50305 12.7874 2.10446 12.7853C1.85672 12.7854 1.60918 12.7709 1.36313 12.742C2.78278 13.6548 4.43536 14.1392 6.12313 14.1373C11.8365 14.1373 14.9598 9.40534 14.9598 5.30134C14.9598 5.16801 14.9565 5.03334 14.9505 4.90001C15.558 4.46066 16.0824 3.91661 16.4991 3.29334L16.5005 3.29134Z" fill="white"/>
</g>
<defs>
<clipPath id="clip0_9_10341">
<rect width="16" height="16" fill="white" transform="translate(0.738464)"/>
</clipPath>
</defs>
</svg>
