<svg width="243" height="113" viewBox="0 0 243 113" fill="none" xmlns="http://www.w3.org/2000/svg">
<path d="M0.380463 56.801C0.380463 59.0102 2.17132 60.801 4.38046 60.801C6.5896 60.801 8.38046 59.0102 8.38046 56.801C8.38046 54.5919 6.5896 52.801 4.38046 52.801C2.17132 52.801 0.380463 54.5919 0.380463 56.801ZM43.7744 56.801V57.551H44.201L44.4191 57.1844L43.7744 56.801ZM63.0337 24.4105L63.7638 24.2392L63.3392 22.4291L62.389 24.0272L63.0337 24.4105ZM79.6667 95.3196L78.9365 95.4908L80.405 95.4514L79.6667 95.3196ZM84.0438 70.8078V70.0578H83.4158L83.3055 70.6759L84.0438 70.8078ZM98.0505 70.8078V71.5578H98.644L98.7804 70.9801L98.0505 70.8078ZM112.933 7.77748L113.675 7.67141L112.203 7.60513L112.933 7.77748ZM119.936 56.801L119.194 56.9071L119.492 58.9983L120.579 57.1869L119.936 56.801ZM135.694 30.5384L136.224 30.0081L135.545 29.3289L135.05 30.1525L135.694 30.5384ZM161.956 56.801L161.426 57.3314L161.646 57.551H161.956V56.801ZM182.966 56.801L183.696 56.6273L183.559 56.051H182.966V56.801ZM196.098 111.953L195.368 112.126L196.845 112.011L196.098 111.953ZM204.852 0.774109L205.579 0.592207L204.104 0.715236L204.852 0.774109ZM218.859 56.801L218.131 56.9829L218.273 57.551H218.859V56.801ZM234.118 56.801C234.118 59.0102 235.909 60.801 238.118 60.801C240.327 60.801 242.118 59.0102 242.118 56.801C242.118 54.5919 240.327 52.801 238.118 52.801C235.909 52.801 234.118 54.5919 234.118 56.801ZM4.38046 57.551H43.7744V56.051H4.38046V57.551ZM44.4191 57.1844L63.6783 24.7938L62.389 24.0272L43.1297 56.4177L44.4191 57.1844ZM62.3035 24.5817L78.9365 95.4908L80.3968 95.1483L63.7638 24.2392L62.3035 24.5817ZM80.405 95.4514L84.7821 70.9396L83.3055 70.6759L78.9283 95.1877L80.405 95.4514ZM84.0438 71.5578H98.0505V70.0578H84.0438V71.5578ZM98.7804 70.9801L113.663 7.94982L112.203 7.60513L97.3206 70.6354L98.7804 70.9801ZM112.19 7.88354L119.194 56.9071L120.678 56.695L113.675 7.67141L112.19 7.88354ZM120.579 57.1869L136.337 30.9243L135.05 30.1525L119.293 56.4152L120.579 57.1869ZM135.163 31.0687L161.426 57.3314L162.487 56.2707L136.224 30.0081L135.163 31.0687ZM161.956 57.551H182.966V56.051H161.956V57.551ZM182.237 56.9748L195.368 112.126L196.827 111.779L183.696 56.6273L182.237 56.9748ZM196.845 112.011L205.6 0.832982L204.104 0.715236L195.35 111.894L196.845 112.011ZM204.124 0.956011L218.131 56.9829L219.586 56.6191L205.579 0.592207L204.124 0.956011ZM218.859 57.551H238.118V56.051H218.859V57.551Z" fill="white"/>
</svg>
