<svg width="48" height="48" viewBox="0 0 48 48" fill="none" xmlns="http://www.w3.org/2000/svg">
<path d="M43.112 14.3939C42.8841 13.5472 42.4378 12.7752 41.8178 12.1552C41.1978 11.5351 40.4257 11.0888 39.579 10.8609C37.265 9.96694 14.847 9.52894 8.343 10.8859C7.49615 11.1139 6.72405 11.5604 6.104 12.1806C5.48396 12.8008 5.03773 13.573 4.81 14.4199C3.765 19.0029 3.686 28.9109 4.836 33.5969C5.06388 34.4437 5.51018 35.2157 6.13021 35.8357C6.75025 36.4558 7.52227 36.9021 8.369 37.1299C12.952 38.1849 34.74 38.3329 39.605 37.1299C40.4517 36.9021 41.2238 36.4558 41.8438 35.8357C42.4638 35.2157 42.9101 34.4437 43.138 33.5969C44.252 28.6039 44.331 19.3099 43.112 14.3939V14.3939Z" stroke="white" stroke-linecap="round" stroke-linejoin="round"/>
<path d="M30.567 23.995L20.12 18.004V29.986L30.567 23.995Z" stroke="white" stroke-linecap="round" stroke-linejoin="round"/>
</svg>
